<mxfile host="www.draw.io" modified="2020-04-06T15:25:01.276Z" agent="5.0 (X11; Linux x86_64) AppleWebKit/537.36 (KHTML, like Gecko) Chrome/77.0.3865.75 Safari/537.36" etag="kHrM6TeeHlLl9vpndqq4" version="12.9.8" type="github">
  <diagram id="fu3fQR6_9AYIXKqkJ8H3" name="Page-1">
    <mxGraphModel dx="1043" dy="416" grid="1" gridSize="10" guides="1" tooltips="1" connect="1" arrows="1" fold="1" page="1" pageScale="1" pageWidth="827" pageHeight="1169" math="0" shadow="0">
      <root>
        <mxCell id="0" />
        <mxCell id="1" parent="0" />
        <mxCell id="__G2gf2v7yFdPr1HupjD-23" value="" style="rounded=0;whiteSpace=wrap;html=1;fillColor=#FFF2CC;" vertex="1" parent="1">
          <mxGeometry x="40" y="10" width="600" height="350" as="geometry" />
        </mxCell>
        <mxCell id="__G2gf2v7yFdPr1HupjD-4" style="edgeStyle=orthogonalEdgeStyle;rounded=0;orthogonalLoop=1;jettySize=auto;html=1;entryX=0.5;entryY=0;entryDx=0;entryDy=0;" edge="1" parent="1">
          <mxGeometry relative="1" as="geometry">
            <mxPoint x="200" y="60" as="sourcePoint" />
            <mxPoint x="340" y="120" as="targetPoint" />
          </mxGeometry>
        </mxCell>
        <mxCell id="__G2gf2v7yFdPr1HupjD-9" value="" style="edgeStyle=orthogonalEdgeStyle;rounded=0;orthogonalLoop=1;jettySize=auto;html=1;" edge="1" parent="1" source="__G2gf2v7yFdPr1HupjD-7" target="__G2gf2v7yFdPr1HupjD-8">
          <mxGeometry relative="1" as="geometry" />
        </mxCell>
        <mxCell id="__G2gf2v7yFdPr1HupjD-7" value="&lt;font style=&quot;font-size: 14px&quot;&gt;阳台检测&lt;/font&gt;" style="rhombus;whiteSpace=wrap;html=1;" vertex="1" parent="1">
          <mxGeometry x="270" y="120" width="140" height="80" as="geometry" />
        </mxCell>
        <mxCell id="__G2gf2v7yFdPr1HupjD-11" value="" style="edgeStyle=orthogonalEdgeStyle;rounded=0;orthogonalLoop=1;jettySize=auto;html=1;entryX=0;entryY=0.5;entryDx=0;entryDy=0;" edge="1" parent="1" source="__G2gf2v7yFdPr1HupjD-8">
          <mxGeometry relative="1" as="geometry">
            <mxPoint x="480" y="290" as="targetPoint" />
          </mxGeometry>
        </mxCell>
        <mxCell id="__G2gf2v7yFdPr1HupjD-20" style="edgeStyle=orthogonalEdgeStyle;rounded=0;orthogonalLoop=1;jettySize=auto;html=1;exitX=0;exitY=0.5;exitDx=0;exitDy=0;entryX=1;entryY=0.5;entryDx=0;entryDy=0;" edge="1" parent="1" source="__G2gf2v7yFdPr1HupjD-8" target="__G2gf2v7yFdPr1HupjD-19">
          <mxGeometry relative="1" as="geometry" />
        </mxCell>
        <mxCell id="__G2gf2v7yFdPr1HupjD-8" value="&lt;font style=&quot;font-size: 14px&quot;&gt;毛坯检测&lt;/font&gt;" style="rhombus;whiteSpace=wrap;html=1;" vertex="1" parent="1">
          <mxGeometry x="270" y="250" width="140" height="80" as="geometry" />
        </mxCell>
        <mxCell id="__G2gf2v7yFdPr1HupjD-14" value="&lt;font style=&quot;font-size: 14px&quot;&gt;是&lt;/font&gt;" style="text;html=1;strokeColor=none;fillColor=none;align=center;verticalAlign=middle;whiteSpace=wrap;rounded=0;" vertex="1" parent="1">
          <mxGeometry x="414" y="260" width="40" height="20" as="geometry" />
        </mxCell>
        <mxCell id="__G2gf2v7yFdPr1HupjD-15" value="&lt;font style=&quot;font-size: 14px&quot;&gt;否&lt;/font&gt;" style="text;html=1;strokeColor=none;fillColor=none;align=center;verticalAlign=middle;whiteSpace=wrap;rounded=0;" vertex="1" parent="1">
          <mxGeometry x="350" y="210" width="40" height="20" as="geometry" />
        </mxCell>
        <mxCell id="__G2gf2v7yFdPr1HupjD-16" value="最终结果&lt;br&gt;（是毛坯）" style="ellipse;whiteSpace=wrap;html=1;" vertex="1" parent="1">
          <mxGeometry x="480" y="260" width="120" height="60" as="geometry" />
        </mxCell>
        <mxCell id="__G2gf2v7yFdPr1HupjD-18" value="&lt;span style=&quot;font-size: 14px&quot;&gt;房源图片&lt;/span&gt;" style="ellipse;whiteSpace=wrap;html=1;" vertex="1" parent="1">
          <mxGeometry x="80" y="30" width="120" height="60" as="geometry" />
        </mxCell>
        <mxCell id="__G2gf2v7yFdPr1HupjD-22" style="edgeStyle=orthogonalEdgeStyle;rounded=0;orthogonalLoop=1;jettySize=auto;html=1;exitX=0.5;exitY=0;exitDx=0;exitDy=0;" edge="1" parent="1" source="__G2gf2v7yFdPr1HupjD-19" target="__G2gf2v7yFdPr1HupjD-21">
          <mxGeometry relative="1" as="geometry" />
        </mxCell>
        <mxCell id="__G2gf2v7yFdPr1HupjD-19" value="&lt;span style=&quot;font-size: 14px&quot;&gt;次发审核&lt;/span&gt;" style="rhombus;whiteSpace=wrap;html=1;" vertex="1" parent="1">
          <mxGeometry x="70" y="250" width="140" height="80" as="geometry" />
        </mxCell>
        <mxCell id="__G2gf2v7yFdPr1HupjD-21" value="最终结果&lt;br&gt;（匹配详情）" style="ellipse;whiteSpace=wrap;html=1;" vertex="1" parent="1">
          <mxGeometry x="80" y="140" width="120" height="60" as="geometry" />
        </mxCell>
      </root>
    </mxGraphModel>
  </diagram>
</mxfile>
